<svg width="262" height="150" viewBox="0 0 262 150" fill="none" xmlns="http://www.w3.org/2000/svg">
<path d="M4.55894 45.024C3.9703 45.2083 3.34347 45.2343 2.7416 45.0993C2.13972 44.9642 1.58406 44.673 1.13059 44.2548C0.677112 43.8367 0.341842 43.3064 0.158547 42.7174C-0.0247482 42.1285 -0.0495947 41.5016 0.0865124 40.9C2.12868 32.404 9.89395 11.627 38.1831 2.88825C50.4369 -0.897072 62.1885 -0.961693 73.097 2.69476C82.071 5.69037 88.0284 10.3781 90.8781 12.6439C91.6022 13.2167 92.069 14.0537 92.1759 14.9707C92.2829 15.8877 92.0211 16.8096 91.4483 17.5337C91.4412 17.5427 91.4341 17.5516 91.4269 17.5605C90.8386 18.2867 89.9886 18.7528 89.06 18.8582C88.1313 18.9636 87.1985 18.7 86.4624 18.124C81.2994 14.056 65.6316 1.69751 40.2384 9.5417C15.4435 17.2011 8.70824 35.1168 6.96129 42.4467C6.82862 43.0521 6.53564 43.6108 6.11301 44.0642C5.69037 44.5177 5.15363 44.8491 4.55895 45.024L4.55894 45.024Z" fill="#007FFF"/>
<path d="M81.6635 93.1455C81.3825 93.2364 81.0911 93.2911 80.7962 93.3086C58.6959 94.4989 44.6347 76.1385 44.0574 75.373L43.9504 75.1963C43.598 74.6497 35.09 61.705 38.8355 51.4244C40.5559 46.7244 44.3608 43.4255 50.1766 41.6289C55.5855 39.9581 60.0116 40.4523 63.7789 43.1424C66.8679 45.3342 68.8476 48.6028 70.7665 51.7591C74.7572 58.3128 77.203 61.6472 84.7885 59.7234C88.1191 58.8781 89.6742 56.2741 90.3847 54.2456C92.2976 48.7259 90.6022 41.201 86.117 35.5079C80.3223 28.1219 64.1058 15.8543 44.0976 22.035C35.5534 24.6744 28.5609 29.8756 23.8782 37.0375C19.9989 42.9811 17.7437 50.3631 17.6943 57.2473C17.6164 70.0653 28.1215 86.9287 28.2212 87.0814C28.463 87.4683 28.6264 87.899 28.7018 88.349C28.7772 88.799 28.7632 89.2595 28.6607 89.7041C28.5582 90.1487 28.3691 90.5688 28.1042 90.9403C27.8393 91.3118 27.5039 91.6275 27.117 91.8694C27.1063 91.8761 27.0955 91.8828 27.0847 91.8894C26.292 92.3838 25.3367 92.5465 24.4251 92.3425C23.5134 92.1385 22.7186 91.5841 22.2123 90.799C21.7381 90.0279 10.5209 72.0474 10.6113 57.233C10.7371 41.1755 20.495 22.0115 42.0349 15.3576C51.9912 12.282 62.4542 12.7989 72.3005 16.8359C79.9321 19.984 86.9951 25.1954 91.6648 31.1462C97.6291 38.7419 99.7304 48.6845 97.0152 56.4445C95.2051 61.6179 91.4576 65.1875 86.4774 66.4638C73.4974 69.7656 68.4126 61.4525 64.7041 55.3883C60.896 49.1715 58.7896 46.2566 52.208 48.2898C48.594 49.4061 46.3676 51.195 45.4312 53.7652C44.157 57.2786 45.3646 61.782 46.6021 64.939C46.6149 64.972 46.6277 65.005 46.6406 65.0378C48.227 69.0505 50.7027 72.6513 53.8815 75.5692C58.9736 80.2716 68.4269 86.9754 80.4754 86.329C81.3965 86.2718 82.3026 86.5828 82.9944 87.1937C83.6861 87.8045 84.1069 88.6652 84.1641 89.5863C84.1648 89.5974 84.1655 89.6085 84.1661 89.6196C84.1943 90.4007 83.9645 91.1693 83.5122 91.8066C83.0598 92.4439 82.4101 92.9145 81.6635 93.1455L81.6635 93.1455Z" fill="#007FFF"/>
<path d="M54.8637 99.7463C54.403 99.8889 53.9182 99.9365 53.4386 99.8864C52.959 99.8363 52.4945 99.6894 52.0733 99.4547C41.173 93.2789 33.5209 84.9723 28.0107 73.33L27.9885 73.2582C24.5157 65.4958 22.4252 53.636 27.0366 43.6123C30.4409 36.2161 36.8312 31.0174 45.9977 28.1858C56.8395 24.8367 66.9345 27.3025 75.2197 35.2824C78.9877 38.9654 82.0519 43.3051 84.2617 48.0884C84.614 48.949 84.6133 49.9137 84.2598 50.7738C83.9063 51.6339 83.2285 52.3203 82.3729 52.6845C81.5173 53.0487 80.5527 53.0615 79.6877 52.7201C78.8228 52.3786 78.127 51.7104 77.7509 50.8599C75.8798 46.8677 73.2965 43.2502 70.1274 40.185C63.7412 34.1091 56.3174 32.3125 48.0364 34.8706C40.8804 37.0811 35.9528 40.9891 33.4303 46.4874C29.7926 54.4013 31.6655 64.2834 34.3832 70.3652C39.2418 80.662 45.9812 87.9659 55.5749 93.3918C55.9712 93.6153 56.3196 93.9147 56.6002 94.2728C56.8808 94.631 57.0881 95.0409 57.2103 95.4791C57.3325 95.9174 57.3672 96.3754 57.3123 96.8271C57.2575 97.2788 57.1142 97.7152 56.8907 98.1115C56.8819 98.1272 56.8729 98.1428 56.8638 98.1584C56.4169 98.9173 55.7041 99.4832 54.8637 99.7463Z" fill="#007FFF"/>
<path d="M56.0115 64.9418C58.5017 64.9418 60.5204 62.9231 60.5204 60.4329C60.5204 57.9428 58.5017 55.9241 56.0115 55.9241C53.5214 55.9241 51.5027 57.9428 51.5027 60.4329C51.5027 62.9231 53.5214 64.9418 56.0115 64.9418Z" fill="#E6E6E6"/>
<path d="M137.31 115.49C137.217 115.49 137.124 115.483 137.032 115.469C136.793 115.434 136.563 115.351 136.357 115.226C136.15 115.102 135.97 114.937 135.827 114.743L133.351 111.384C133.207 111.19 133.104 110.97 133.046 110.736C132.988 110.501 132.976 110.258 133.012 110.019C133.048 109.781 133.131 109.552 133.256 109.345C133.38 109.138 133.544 108.958 133.739 108.815L154.913 93.1984C155.107 93.0551 155.328 92.9515 155.562 92.8935C155.796 92.8355 156.04 92.8242 156.278 92.8602C156.517 92.8963 156.746 92.9789 156.953 93.1036C157.159 93.2282 157.34 93.3923 157.483 93.5866L159.959 96.9445C160.248 97.3367 160.37 97.8278 160.297 98.3097C160.225 98.7916 159.963 99.2249 159.571 99.5142L138.397 115.131C138.083 115.364 137.701 115.49 137.31 115.49Z" fill="#007FFF"/>
<path d="M152.348 102.917L149.107 98.5224C148.84 98.1603 148.728 97.707 148.795 97.2622C148.862 96.8174 149.103 96.4175 149.465 96.1505L161.865 85.2862C162.227 85.0192 162.68 84.9069 163.125 84.9741C163.57 85.0413 163.97 85.2825 164.237 85.6445L170.163 92.7243C170.431 93.0864 170.543 93.5396 170.476 93.9845C170.408 94.4293 170.167 94.8292 169.805 95.0962L154.72 103.275C154.358 103.542 153.904 103.654 153.46 103.587C153.015 103.52 152.615 103.279 152.348 102.917Z" fill="#2F2E41"/>
<path d="M172.272 149.904H168.1C167.612 149.903 167.145 149.71 166.801 149.365C166.456 149.021 166.263 148.554 166.262 148.066V113.29C166.263 112.803 166.456 112.335 166.801 111.991C167.145 111.646 167.612 111.453 168.1 111.452H172.272C172.759 111.453 173.226 111.646 173.571 111.991C173.915 112.335 174.109 112.803 174.109 113.29V148.066C174.109 148.554 173.915 149.021 173.571 149.365C173.226 149.71 172.759 149.903 172.272 149.904Z" fill="#007FFF"/>
<path d="M180.525 149.904H176.352C175.865 149.903 175.398 149.71 175.053 149.365C174.709 149.021 174.515 148.554 174.515 148.066V113.29C174.515 112.803 174.709 112.335 175.053 111.991C175.398 111.646 175.865 111.453 176.352 111.452H180.525C181.012 111.453 181.479 111.646 181.823 111.991C182.168 112.335 182.362 112.803 182.362 113.29V148.066C182.362 148.554 182.168 149.021 181.823 149.365C181.479 149.71 181.012 149.903 180.525 149.904Z" fill="#007FFF"/>
<path d="M219.648 149.367H128.043V150H219.648V149.367Z" fill="#3F3D56"/>
<path d="M172.51 70.4671C180.867 70.4671 187.64 63.6932 187.64 55.3371C187.64 46.981 180.867 40.207 172.51 40.207C164.154 40.207 157.38 46.981 157.38 55.3371C157.38 63.6932 164.154 70.4671 172.51 70.4671Z" fill="#007FFF"/>
<path d="M195.934 132.072L187.172 93.1592V83.9652C187.172 83.3654 186.934 82.7902 186.509 82.366C186.085 81.9419 185.51 81.7036 184.91 81.7036H176.517V75.7914C176.517 75.4944 176.458 75.2003 176.345 74.9259C176.231 74.6515 176.064 74.4022 175.854 74.1922C175.644 73.9822 175.395 73.8156 175.121 73.7019C174.846 73.5883 174.552 73.5298 174.255 73.5298H169.732C169.435 73.5298 169.141 73.5883 168.866 73.7019C168.592 73.8156 168.343 73.9822 168.133 74.1922C167.923 74.4022 167.756 74.6515 167.642 74.9259C167.529 75.2003 167.47 75.4944 167.47 75.7914V81.7036H159.077C158.477 81.7036 157.902 81.9419 157.477 82.366C157.053 82.7902 156.815 83.3654 156.815 83.9652V132.332C156.815 132.622 156.871 132.909 156.98 133.178C157.082 133.661 157.343 134.096 157.721 134.414C158.099 134.732 158.572 134.915 159.066 134.933L194.524 136.115C196.643 136.171 197.604 133.414 195.934 132.072Z" fill="#2F2E41"/>
<path d="M172.656 60.7124C171.721 60.6861 170.558 60.6536 169.662 59.999C169.395 59.7962 169.176 59.5375 169.02 59.241C168.864 58.9446 168.774 58.6176 168.758 58.2829C168.741 58.0448 168.78 57.8063 168.871 57.5858C168.963 57.3654 169.104 57.169 169.283 57.0121C169.752 56.6167 170.436 56.5243 171.171 56.7404L170.408 51.1637L170.969 51.0869L171.865 57.6429L171.398 57.4284C170.855 57.1794 170.111 57.053 169.648 57.4439C169.535 57.5461 169.446 57.6732 169.39 57.8152C169.333 57.9572 169.31 58.1104 169.323 58.2627C169.336 58.5118 169.404 58.7551 169.52 58.9759C169.636 59.1967 169.798 59.3899 169.996 59.5423C170.693 60.0517 171.62 60.1177 172.672 60.1469L172.656 60.7124Z" fill="#2F2E41"/>
<path d="M167.638 51.645H164.593V52.2104H167.638V51.645Z" fill="#2F2E41"/>
<path d="M177.25 51.645H174.205V52.2104H177.25V51.645Z" fill="#2F2E41"/>
<path d="M159.261 45.5575C156.573 43.9287 155.308 40.8389 155.305 37.7831C155.304 36.1543 155.657 34.5448 156.342 33.0666C157.026 31.5884 158.024 30.2772 159.267 29.2242C162.035 26.8301 165.721 25.6585 169.322 25.3608C173.68 25.0006 178.009 25.9477 182.17 27.1565C186.626 28.4509 190.992 30.0795 195.553 30.9857C199.979 31.865 204.417 31.9518 208.775 30.6801C212.797 29.5065 216.879 27.4325 221.175 27.792C224.885 28.1024 227.703 30.5716 229.599 33.6222C233.362 39.6787 233.659 47.8078 239.071 52.8512C241.411 55.0318 244.459 56.0197 247.506 56.758C250.427 57.466 253.544 57.9196 256.225 59.3524C259.099 60.8888 260.84 63.7766 260.39 67.0856C259.879 70.8437 257.205 74.0783 254.261 76.286C251.161 78.5809 247.589 80.1555 243.804 80.8953C240.019 81.635 236.116 81.5212 232.381 80.5622C224.569 78.4898 218.221 72.4356 209.898 72.0562C205.255 71.8445 200.684 73.1094 196.042 72.8997C192.824 72.7543 189.361 71.5649 187.12 69.1722C186.045 68.0527 185.372 66.6066 185.21 65.0625C185.159 64.5237 184.311 64.5184 184.362 65.0625C184.68 68.4427 187.168 70.9395 190.138 72.3122C191.701 73.0294 193.369 73.4888 195.079 73.6726C197.351 73.9235 199.667 73.6861 201.929 73.4382C204.319 73.1762 206.713 72.8534 209.123 72.8823C211.322 72.9172 213.502 73.3048 215.579 74.0304C219.567 75.3982 223.159 77.6674 226.969 79.4347C230.656 81.1452 234.517 82.2057 238.601 82.232C242.537 82.2516 246.431 81.4166 250.013 79.7846C253.54 78.1776 256.855 75.7788 259.051 72.5452C261.111 69.5133 262.192 65.536 260.339 62.1419C258.886 59.4817 256.116 58.1355 253.323 57.3067C250.227 56.388 246.991 55.9683 243.96 54.8242C242.376 54.2549 240.919 53.3809 239.671 52.2515C238.332 50.9522 237.229 49.4302 236.411 47.7535C234.676 44.3686 233.789 40.651 232.328 37.1548C230.974 33.9162 229.122 30.652 226.138 28.6561C224.535 27.5954 222.672 26.9939 220.751 26.917C218.626 26.8208 216.514 27.3087 214.494 27.9235C212.356 28.5742 210.27 29.3868 208.117 29.9856C205.848 30.6172 203.496 30.8981 201.143 30.8185C196.302 30.6607 191.626 29.2228 187.044 27.7731C179.016 25.2334 170.088 22.5146 162.018 26.4294C158.873 27.9547 156.209 30.514 155.086 33.8745C154.092 36.848 154.23 40.3165 155.762 43.0867C156.488 44.4044 157.547 45.5088 158.833 46.2898C159.301 46.5734 159.727 45.8403 159.261 45.5575L159.261 45.5575Z" fill="#2F2E41"/>
<path d="M182.651 121.165H178.479C177.992 121.164 177.524 120.971 177.18 120.626C176.835 120.282 176.642 119.815 176.641 119.327V95.2256C176.642 94.7385 176.835 94.2714 177.18 93.9269C177.524 93.5824 177.992 93.3886 178.479 93.3881H182.651C183.139 93.3886 183.606 93.5824 183.95 93.9269C184.295 94.2714 184.488 94.7385 184.489 95.2256V119.327C184.488 119.815 184.295 120.282 183.95 120.626C183.606 120.971 183.139 121.164 182.651 121.165Z" fill="#007FFF"/>
<path d="M166.545 41.814C166.638 42.4784 166.915 43.1036 167.344 43.6192C167.774 44.1347 168.338 44.52 168.975 44.7317C169.612 44.9433 170.295 44.9729 170.947 44.817C171.6 44.6612 172.196 44.3261 172.668 43.8496L171.959 43.6625C172.355 44.674 173.018 45.5591 173.877 46.2232C174.736 46.8873 175.76 47.3055 176.838 47.4332C177.917 47.5608 179.01 47.393 180 46.9478C180.991 46.5026 181.842 45.7967 182.462 44.9055C182.782 44.4618 182.046 44.0379 181.73 44.4774C181.195 45.2263 180.469 45.8181 179.628 46.1912C178.787 46.5643 177.861 46.705 176.947 46.5988C176.033 46.4926 175.164 46.1432 174.43 45.5872C173.697 45.0311 173.126 44.2886 172.777 43.4371C172.756 43.3667 172.717 43.303 172.664 43.2519C172.611 43.2008 172.546 43.1642 172.475 43.1454C172.404 43.1267 172.329 43.1264 172.258 43.1447C172.187 43.163 172.122 43.1992 172.069 43.2499C171.701 43.6218 171.235 43.8813 170.725 43.9983C170.215 44.1153 169.682 44.085 169.189 43.9108C168.696 43.7367 168.262 43.4259 167.939 43.0147C167.616 42.6035 167.416 42.1089 167.363 41.5885C167.287 41.0503 166.47 41.2793 166.545 41.814V41.814Z" fill="#2F2E41"/>
<path d="M139.812 102.026L139.723 102.086L138.081 99.6637C137.957 99.4796 137.797 99.3219 137.611 99.1996C137.425 99.0773 137.217 98.9928 136.999 98.9509C136.781 98.909 136.556 98.9105 136.338 98.9553C136.12 99.0002 135.914 99.0875 135.729 99.2123L130.598 102.691C130.414 102.816 130.257 102.975 130.134 103.161C130.012 103.347 129.928 103.555 129.886 103.773C129.844 103.992 129.845 104.216 129.89 104.434C129.935 104.652 130.022 104.859 130.147 105.043L139.154 118.329C139.279 118.513 139.439 118.671 139.625 118.793C139.81 118.916 140.018 119 140.237 119.042C140.455 119.084 140.68 119.082 140.897 119.038C141.115 118.993 141.322 118.905 141.506 118.781L146.637 115.302C146.821 115.177 146.979 115.018 147.101 114.832C147.224 114.646 147.308 114.438 147.35 114.22C147.392 114.001 147.39 113.777 147.346 113.559C147.301 113.341 147.213 113.134 147.089 112.95L140.892 103.809L140.98 103.75L139.812 102.026Z" fill="#3F3D56"/>
<path d="M136.118 99.8411L135.469 100.281C135.549 100.333 135.614 100.405 135.659 100.489C135.704 100.573 135.728 100.667 135.728 100.762C135.729 100.858 135.706 100.952 135.661 101.036C135.617 101.12 135.552 101.192 135.473 101.246L132.628 103.175C132.549 103.228 132.458 103.262 132.363 103.272C132.269 103.282 132.173 103.268 132.084 103.233C131.996 103.197 131.918 103.14 131.856 103.067C131.795 102.994 131.753 102.907 131.733 102.814L131.127 103.224C130.994 103.314 130.88 103.43 130.792 103.564C130.703 103.699 130.642 103.849 130.612 104.007C130.582 104.165 130.583 104.327 130.615 104.484C130.648 104.642 130.711 104.791 130.801 104.924L139.506 117.765C139.597 117.899 139.712 118.013 139.846 118.101C139.981 118.189 140.131 118.25 140.289 118.281C140.447 118.311 140.609 118.31 140.766 118.278C140.924 118.245 141.073 118.182 141.206 118.092L146.197 114.709C146.465 114.527 146.651 114.245 146.712 113.926C146.773 113.608 146.705 113.277 146.523 113.009L137.817 100.168C137.727 100.035 137.612 99.9205 137.477 99.8321C137.343 99.7437 137.193 99.6826 137.035 99.6523C136.877 99.622 136.715 99.6231 136.557 99.6555C136.4 99.6879 136.25 99.7511 136.117 99.8413L136.118 99.8411Z" fill="white"/>
</svg>
