<svg width="84" height="168" viewBox="0 0 84 168" fill="none" xmlns="http://www.w3.org/2000/svg">
<path d="M83.7691 39.9228H82.8458V14.6353C82.8458 10.7538 81.3039 7.03124 78.5592 4.28658C75.8146 1.54193 72.092 0 68.2105 0H14.6353C10.7538 0 7.03123 1.54193 4.28658 4.28658C1.54192 7.03124 0 10.7538 0 14.6353V153.365C0 157.246 1.54192 160.969 4.28658 163.713C7.03123 166.458 10.7538 168 14.6353 168H68.2102C72.0918 168 75.8143 166.458 78.559 163.713C81.3036 160.969 82.8456 157.246 82.8456 153.365V57.9228H83.7689L83.7691 39.9228Z" fill="#3F3D56"/>
<path d="M68.8011 3.80725H61.8078C62.1296 4.59578 62.2525 5.45134 62.1657 6.29855C62.0788 7.14577 61.785 7.95862 61.3099 8.66549C60.8349 9.37237 60.1933 9.95155 59.4417 10.352C58.6901 10.7525 57.8515 10.9619 56.9999 10.9619H26.3075C25.456 10.9619 24.6175 10.7524 23.866 10.3519C23.1145 9.95148 22.473 9.37236 21.998 8.66559C21.523 7.95882 21.2291 7.14609 21.1423 6.29899C21.0554 5.45189 21.1782 4.59642 21.4998 3.80794H14.967C12.0682 3.80794 9.28814 4.95948 7.23839 7.00922C5.18865 9.05897 4.03711 11.839 4.03711 14.7378V153.263C4.03711 156.162 5.18865 158.942 7.23839 160.991C9.28814 163.041 12.0682 164.193 14.967 164.193H68.7991C71.6979 164.193 74.4779 163.041 76.5277 160.991C78.5774 158.942 79.7289 156.162 79.7289 153.263V153.263V14.7371C79.7289 11.8383 78.5774 9.05828 76.5277 7.00853C74.4779 4.95879 71.6979 3.80725 68.7991 3.80725H68.8011Z" fill="white"/>
<path d="M41.9765 151.835C45.2912 151.835 47.9783 149.148 47.9783 145.833C47.9783 142.518 45.2912 139.831 41.9765 139.831C38.6617 139.831 35.9746 142.518 35.9746 145.833C35.9746 149.148 38.6617 151.835 41.9765 151.835Z" fill="#E6E6E6"/>
<path d="M75.0654 76.2837H8.70044V89.3864H75.0654V76.2837Z" fill="#E6E6E6"/>
<path d="M10.115 87.9719H73.6505V77.6995H10.115V87.9719Z" fill="white"/>
<path d="M15.6771 78.8364C16.4512 78.8364 17.2079 79.066 17.8515 79.496C18.4952 79.9261 18.9968 80.5374 19.2931 81.2525C19.5893 81.9677 19.6668 82.7547 19.5158 83.5139C19.3648 84.2731 18.992 84.9705 18.4446 85.5179C17.8973 86.0653 17.1999 86.438 16.4407 86.589C15.6814 86.7401 14.8945 86.6625 14.1793 86.3663C13.4641 86.0701 12.8529 85.5684 12.4228 84.9248C11.9927 84.2811 11.7632 83.5244 11.7632 82.7503C11.7632 82.2363 11.8644 81.7274 12.0611 81.2525C12.2578 80.7777 12.5461 80.3462 12.9095 79.9828C13.273 79.6193 13.7044 79.331 14.1793 79.1344C14.6542 78.9377 15.1631 78.8364 15.6771 78.8364Z" fill="#007FFF"/>
<path d="M63.6639 81.2188H25.0361V82.0696H63.6639V81.2188Z" fill="#E6E6E6"/>
<path d="M63.6639 83.4308H25.0361V84.2817H63.6639V83.4308Z" fill="#E6E6E6"/>
<path d="M75.0654 94.9818H8.70044V108.085H75.0654V94.9818Z" fill="#E6E6E6"/>
<path d="M10.115 106.67H73.6505V96.3975H10.115V106.67Z" fill="white"/>
<path d="M15.6771 105.362C17.8387 105.362 19.591 103.61 19.591 101.448C19.591 99.2866 17.8387 97.5343 15.6771 97.5343C13.5155 97.5343 11.7632 99.2866 11.7632 101.448C11.7632 103.61 13.5155 105.362 15.6771 105.362Z" fill="#007FFF"/>
<path d="M63.6639 99.9166H25.0361V100.767H63.6639V99.9166Z" fill="#E6E6E6"/>
<path d="M63.6639 102.129H25.0361V102.98H63.6639V102.129Z" fill="#E6E6E6"/>
<path d="M75.0654 113.68H8.70044V126.783H75.0654V113.68Z" fill="#E6E6E6"/>
<path d="M10.115 125.368H73.6505V115.095H10.115V125.368Z" fill="white"/>
<path d="M15.6771 124.06C17.8387 124.06 19.591 122.308 19.591 120.146C19.591 117.985 17.8387 116.232 15.6771 116.232C13.5155 116.232 11.7632 117.985 11.7632 120.146C11.7632 122.308 13.5155 124.06 15.6771 124.06Z" fill="#007FFF"/>
<path d="M63.6639 118.615H25.0361V119.466H63.6639V118.615Z" fill="#E6E6E6"/>
<path d="M63.6639 120.827H25.0361V121.678H63.6639V120.827Z" fill="#E6E6E6"/>
<path d="M41.8828 63.2314C52.082 63.2314 60.3501 54.9633 60.3501 44.7641C60.3501 34.565 52.082 26.2969 41.8828 26.2969C31.6836 26.2969 23.4155 34.565 23.4155 44.7641C23.4155 54.9633 31.6836 63.2314 41.8828 63.2314Z" fill="#007FFF"/>
<path d="M49.2801 37.0145H34.4853C33.8316 37.0153 33.2048 37.2753 32.7426 37.7376C32.2803 38.1998 32.0203 38.8266 32.0195 39.4803V50.048C32.0203 50.7017 32.2803 51.3285 32.7425 51.7908C33.2048 52.253 33.8316 52.5131 34.4853 52.5138H49.2801C49.9338 52.5131 50.5606 52.253 51.0229 51.7908C51.4851 51.3285 51.7452 50.7017 51.7459 50.048V39.4803C51.7452 38.8266 51.4851 38.1998 51.0229 37.7376C50.5606 37.2753 49.9338 37.0153 49.2801 37.0145ZM49.2801 38.4236C49.3684 38.4239 49.4563 38.4354 49.5418 38.4577L41.8844 44.566L34.2718 38.4453C34.3421 38.4308 34.4136 38.4235 34.4853 38.4236H49.2801ZM49.2801 51.1048H34.4853C34.2051 51.1044 33.9365 50.993 33.7384 50.7949C33.5403 50.5968 33.4289 50.3282 33.4285 50.048V39.5752L41.4413 46.0177C41.5661 46.118 41.7213 46.1729 41.8814 46.1732C42.0415 46.1735 42.1969 46.1192 42.322 46.0194L50.3369 39.6259V50.048C50.3365 50.3282 50.2251 50.5968 50.027 50.7949C49.8289 50.993 49.5603 51.1044 49.2801 51.1048Z" fill="white"/>
</svg>
